<svg width="422" height="573" viewBox="0 0 422 573" fill="none" xmlns="http://www.w3.org/2000/svg">
<rect x="11" width="400" height="400" rx="63" fill="#F8F8F8"/>
<g filter="url(#filter0_d_963_13)">
<rect x="11" width="400" height="221" rx="63" fill="#3F3F3F"/>
</g>
<path d="M115.244 87.6278V75.9091H197.062V87.6278H162.759V185H149.548V87.6278H115.244ZM304.955 130.455C304.955 141.96 302.877 151.903 298.723 160.284C294.568 168.665 288.868 175.128 281.624 179.673C274.38 184.219 266.105 186.491 256.801 186.491C247.498 186.491 239.223 184.219 231.979 179.673C224.735 175.128 219.035 168.665 214.88 160.284C210.725 151.903 208.648 141.96 208.648 130.455C208.648 118.949 210.725 109.006 214.88 100.625C219.035 92.2443 224.735 85.7812 231.979 81.2358C239.223 76.6903 247.498 74.4176 256.801 74.4176C266.105 74.4176 274.38 76.6903 281.624 81.2358C288.868 85.7812 294.568 92.2443 298.723 100.625C302.877 109.006 304.955 118.949 304.955 130.455ZM292.171 130.455C292.171 121.009 290.591 113.036 287.43 106.538C284.305 100.039 280.061 95.1207 274.699 91.7827C269.373 88.4446 263.407 86.7756 256.801 86.7756C250.196 86.7756 244.213 88.4446 238.85 91.7827C233.524 95.1207 229.28 100.039 226.12 106.538C222.995 113.036 221.432 121.009 221.432 130.455C221.432 139.901 222.995 147.873 226.12 154.371C229.28 160.87 233.524 165.788 238.85 169.126C244.213 172.464 250.196 174.134 256.801 174.134C263.407 174.134 269.373 172.464 274.699 169.126C280.061 165.788 284.305 160.87 287.43 154.371C290.591 147.873 292.171 139.901 292.171 130.455Z" fill="white"/>
<path d="M154.875 355H121.21V245.909H156.366C166.949 245.909 176.004 248.093 183.533 252.461C191.061 256.793 196.832 263.026 200.844 271.158C204.857 279.254 206.864 288.949 206.864 300.241C206.864 311.605 204.839 321.388 200.791 329.592C196.743 337.759 190.848 344.045 183.107 348.448C175.365 352.816 165.955 355 154.875 355ZM134.42 343.281H154.023C163.043 343.281 170.518 341.541 176.448 338.061C182.379 334.581 186.8 329.627 189.712 323.2C192.624 316.772 194.08 309.119 194.08 300.241C194.08 291.435 192.641 283.853 189.765 277.496C186.888 271.104 182.592 266.204 176.874 262.795C171.157 259.35 164.037 257.628 155.514 257.628H134.42V343.281ZM321.068 300.455C321.068 311.96 318.991 321.903 314.836 330.284C310.681 338.665 304.982 345.128 297.737 349.673C290.493 354.219 282.219 356.491 272.915 356.491C263.611 356.491 255.337 354.219 248.092 349.673C240.848 345.128 235.148 338.665 230.994 330.284C226.839 321.903 224.761 311.96 224.761 300.455C224.761 288.949 226.839 279.006 230.994 270.625C235.148 262.244 240.848 255.781 248.092 251.236C255.337 246.69 263.611 244.418 272.915 244.418C282.219 244.418 290.493 246.69 297.737 251.236C304.982 255.781 310.681 262.244 314.836 270.625C318.991 279.006 321.068 288.949 321.068 300.455ZM308.284 300.455C308.284 291.009 306.704 283.036 303.543 276.538C300.418 270.039 296.175 265.121 290.812 261.783C285.486 258.445 279.52 256.776 272.915 256.776C266.31 256.776 260.326 258.445 254.964 261.783C249.637 265.121 245.393 270.039 242.233 276.538C239.108 283.036 237.545 291.009 237.545 300.455C237.545 309.901 239.108 317.873 242.233 324.371C245.393 330.87 249.637 335.788 254.964 339.126C260.326 342.464 266.31 344.134 272.915 344.134C279.52 344.134 285.486 342.464 290.812 339.126C296.175 335.788 300.418 330.87 303.543 324.371C306.704 317.873 308.284 309.901 308.284 300.455Z" fill="#3F3F3F"/>
<defs>
<filter id="filter0_d_963_13" x="0.2" y="0" width="421.6" height="245.8" filterUnits="userSpaceOnUse" color-interpolation-filters="sRGB">
<feFlood flood-opacity="0" result="BackgroundImageFix"/>
<feColorMatrix in="SourceAlpha" type="matrix" values="0 0 0 0 0 0 0 0 0 0 0 0 0 0 0 0 0 0 127 0" result="hardAlpha"/>
<feOffset dy="14"/>
<feGaussianBlur stdDeviation="5.4"/>
<feComposite in2="hardAlpha" operator="out"/>
<feColorMatrix type="matrix" values="0 0 0 0 0 0 0 0 0 0 0 0 0 0 0 0 0 0 0.25 0"/>
<feBlend mode="normal" in2="BackgroundImageFix" result="effect1_dropShadow_963_13"/>
<feBlend mode="normal" in="SourceGraphic" in2="effect1_dropShadow_963_13" result="shape"/>
</filter>
</defs>
</svg>
